<svg width="16" height="17" viewBox="0 0 16 17" fill="none" xmlns="http://www.w3.org/2000/svg">
<path d="M11.5625 10.8333H10.8713L10.6263 10.5858C11.5134 9.50786 12.001 8.13164 12 6.70834C12 5.52989 11.6664 4.37791 11.0415 3.39806C10.4165 2.41822 9.52827 1.65453 8.48901 1.20355C7.44976 0.752582 6.30619 0.634587 5.20293 0.86449C4.09966 1.09439 3.08624 1.66187 2.29083 2.49516C1.49542 3.32845 0.95374 4.39012 0.734286 5.54592C0.514833 6.70173 0.627464 7.89975 1.05794 8.98849C1.48841 10.0772 2.21739 11.0078 3.1527 11.6625C4.088 12.3172 5.18762 12.6667 6.3125 12.6667C7.72125 12.6667 9.01625 12.1258 10.0138 11.2275L10.25 11.4842V12.2083L14.625 16.7825L15.9288 15.4167L11.5625 10.8333V10.8333ZM6.3125 10.8333C4.13375 10.8333 2.375 8.99084 2.375 6.70834C2.375 4.42584 4.13375 2.58334 6.3125 2.58334C8.49125 2.58334 10.25 4.42584 10.25 6.70834C10.25 8.99084 8.49125 10.8333 6.3125 10.8333Z" fill="#969BA0"/>
</svg>
